<svg xmlns="http://www.w3.org/2000/svg" viewBox="0 0 24 24" fill="#0a66c2">
  <path d="M20.447 20.452h-3.554v-5.569c0-1.328-.025-3.037-1.852-3.037-1.853 0-2.136 1.445-2.136 2.939v5.667H9.351V9h3.414v1.561h.049c.476-.9 1.637-1.85 3.369-1.85 3.6 0 4.264 2.368 4.264 5.455v6.286zM5.337 7.433c-1.144 0-2.063-.926-2.063-2.065 0-1.138.919-2.063 2.063-2.063 1.14 0 2.064.925 2.064 2.063 0 1.139-.924 2.065-2.064 2.065zM6.813 20.452H3.861V9h2.952v11.452zM22.225 0H1.771C.792 0 0 .771 0 1.723v20.555C0 23.229.792 24 1.771 24h20.451C23.2 24 24 23.229 24 22.278V1.723C24 .771 23.2 0 22.222 0h.003z"></path>
</svg>
